<svg xmlns="http://www.w3.org/2000/svg" style="display:none"><symbol id="bluesky" viewBox="0 0 24 24"><path fill="currentColor" d="M12 15.2c-1.6-2.5-4.6-6.7-7.7-8.8C2.2 4.8 1 5.2 1 6.8c0 .8.4 6.6.6 7.5.7 3.1 3.3 3.9 5.6 3.4 4.1-.8 4.8-3 4.8-3s.7 2.2 4.8 3c2.3.5 4.9-.3 5.6-3.4.2-.9.6-6.7.6-7.5 0-1.6-1.2-2-3.3-.6-3.1 2.1-6.1 6.3-7.7 8.8z"/></symbol><symbol id="discord" viewBox="0 0 24 24"><path fill="currentColor" d="M19.27 5.33C17.94 4.71 16.5 4.26 15 4a.09.09 0 0 0-.07.03c-.18.33-.39.76-.53 1.1a16.1 16.1 0 0 0-4.8 0c-.14-.34-.35-.77-.53-1.1a.09.09 0 0 0-.07-.02c-1.5.26-2.93.71-4.27 1.33-.01 0-.02.01-.03.02-2.72 4.07-3.47 8.03-3.1 11.95 0 .02.01.04.03.05 1.8 1.32 3.53 2.12 5.24 2.65.03.01.06 0 .07-.02.4-.55.76-1.13 1.07-1.74.02-.04 0-.08-.04-.09-.57-.22-1.11-.48-1.64-.78-.04-.02-.04-.08-.01-.11.11-.08.22-.17.33-.25.02-.02.05-.02.07-.01 3.44 1.57 7.15 1.57 10.55 0 .02-.01.05-.01.07.01.11.08.22.17.33.25.04.03.04.09-.01.11-.52.3-1.07.56-1.64.78-.04.01-.05.06-.04.09.31.61.67 1.19 1.07 1.74.03.01.06.02.09.01 1.71-.53 3.44-1.33 5.24-2.65.02-.01.03-.03.03-.05.44-4.53-.73-8.46-3.1-11.95-.01-.01-.02-.02-.04-.02zM8.52 14.91c-1.03 0-1.89-.95-1.89-2.12s.84-2.12 1.89-2.12c1.06 0 1.9.96 1.89 2.12 0 1.17-.84 2.12-1.89 2.12zm6.97 0c-1.03 0-1.89-.95-1.89-2.12s.84-2.12 1.89-2.12c1.06 0 1.9.96 1.89 2.12 0 1.17-.83 2.12-1.89 2.12z"/></symbol><symbol id="github" viewBox="0 0 24 24"><path fill="currentColor" d="M12 2C6.477 2 2 6.484 2 12.017c0 4.425 2.865 8.18 6.839 9.504.5.092.682-.217.682-.483 0-.237-.008-.868-.013-1.703-2.782.605-3.369-1.343-3.369-1.343-.454-1.158-1.11-1.466-1.11-1.466-.908-.62.069-.608.069-.608 1.003.07 1.531 1.032 1.531 1.032.892 1.53 2.341 1.088 2.91.832.092-.647.35-1.088.636-1.338-2.22-.253-4.555-1.113-4.555-4.951 0-1.093.39-1.988 1.029-2.688-.103-.253-.446-1.272.098-2.65 0 0 .84-.27 2.75 1.026A9.564 9.564 0 0 1 12 6.844a9.59 9.59 0 0 1 2.504.337c1.909-1.296 2.747-1.027 2.747-1.027.546 1.379.202 2.398.1 2.651.64.7 1.028 1.595 1.028 2.688 0 3.848-2.339 4.695-4.566 4.943.359.309.678.92.678 1.855 0 1.338-.012 2.419-.012 2.747 0 .268.18.58.688.482A10.02 10.02 0 0 0 22 12.017C22 6.484 17.522 2 12 2z"/></symbol><symbol id="x" viewBox="0 0 24 24"><path fill="currentColor" d="M18.244 2.25h3.308l-7.227 8.26 8.502 11.24H16.17l-5.214-6.817L4.99 21.75H1.68l7.73-8.835L1.254 2.25H8.08l4.713 6.231zm-1.161 17.52h1.833L7.084 4.126H5.117z"/></symbol></svg>
